<mxfile host="Electron" modified="2024-04-17T14:54:25.025Z" agent="Mozilla/5.0 (Windows NT 10.0; Win64; x64) AppleWebKit/537.36 (KHTML, like Gecko) draw.io/24.1.0 Chrome/120.0.6099.109 Electron/28.1.0 Safari/537.36" etag="E02Kf2SYN93-oGsfo4Cb" version="24.1.0" type="device">
  <diagram name="Pagina-1" id="wKSfDcrVW7OVmNYFnC0n">
    <mxGraphModel dx="880" dy="532" grid="1" gridSize="10" guides="1" tooltips="1" connect="1" arrows="1" fold="1" page="1" pageScale="1" pageWidth="827" pageHeight="1169" math="0" shadow="0">
      <root>
        <mxCell id="0" />
        <mxCell id="1" parent="0" />
        <mxCell id="SGqqC_UlUSvSamoaFsI_-4" style="edgeStyle=orthogonalEdgeStyle;rounded=0;orthogonalLoop=1;jettySize=auto;html=1;entryX=0;entryY=0.5;entryDx=0;entryDy=0;endArrow=doubleBlock;endFill=1;" parent="1" source="SGqqC_UlUSvSamoaFsI_-1" target="SGqqC_UlUSvSamoaFsI_-3" edge="1">
          <mxGeometry relative="1" as="geometry" />
        </mxCell>
        <mxCell id="SGqqC_UlUSvSamoaFsI_-48" style="edgeStyle=orthogonalEdgeStyle;rounded=0;orthogonalLoop=1;jettySize=auto;html=1;entryX=0;entryY=0.5;entryDx=0;entryDy=0;" parent="1" source="SGqqC_UlUSvSamoaFsI_-1" target="SGqqC_UlUSvSamoaFsI_-44" edge="1">
          <mxGeometry relative="1" as="geometry" />
        </mxCell>
        <mxCell id="SGqqC_UlUSvSamoaFsI_-49" style="edgeStyle=orthogonalEdgeStyle;rounded=0;orthogonalLoop=1;jettySize=auto;html=1;entryX=0;entryY=0.5;entryDx=0;entryDy=0;" parent="1" source="SGqqC_UlUSvSamoaFsI_-1" target="SGqqC_UlUSvSamoaFsI_-46" edge="1">
          <mxGeometry relative="1" as="geometry" />
        </mxCell>
        <mxCell id="SGqqC_UlUSvSamoaFsI_-1" value="Squadra" style="rounded=0;whiteSpace=wrap;html=1;" parent="1" vertex="1">
          <mxGeometry x="120" y="170" width="120" height="60" as="geometry" />
        </mxCell>
        <mxCell id="SGqqC_UlUSvSamoaFsI_-5" style="edgeStyle=orthogonalEdgeStyle;rounded=0;orthogonalLoop=1;jettySize=auto;html=1;entryX=1;entryY=0.5;entryDx=0;entryDy=0;" parent="1" source="SGqqC_UlUSvSamoaFsI_-2" target="SGqqC_UlUSvSamoaFsI_-3" edge="1">
          <mxGeometry relative="1" as="geometry" />
        </mxCell>
        <mxCell id="SGqqC_UlUSvSamoaFsI_-31" style="edgeStyle=orthogonalEdgeStyle;rounded=0;orthogonalLoop=1;jettySize=auto;html=1;entryX=0;entryY=0.5;entryDx=0;entryDy=0;" parent="1" source="SGqqC_UlUSvSamoaFsI_-2" target="SGqqC_UlUSvSamoaFsI_-19" edge="1">
          <mxGeometry relative="1" as="geometry" />
        </mxCell>
        <mxCell id="SGqqC_UlUSvSamoaFsI_-32" style="edgeStyle=orthogonalEdgeStyle;rounded=0;orthogonalLoop=1;jettySize=auto;html=1;entryX=0;entryY=0.5;entryDx=0;entryDy=0;" parent="1" source="SGqqC_UlUSvSamoaFsI_-2" target="SGqqC_UlUSvSamoaFsI_-23" edge="1">
          <mxGeometry relative="1" as="geometry" />
        </mxCell>
        <mxCell id="SGqqC_UlUSvSamoaFsI_-33" style="edgeStyle=orthogonalEdgeStyle;rounded=0;orthogonalLoop=1;jettySize=auto;html=1;entryX=0;entryY=0.5;entryDx=0;entryDy=0;" parent="1" source="SGqqC_UlUSvSamoaFsI_-2" target="SGqqC_UlUSvSamoaFsI_-25" edge="1">
          <mxGeometry relative="1" as="geometry" />
        </mxCell>
        <mxCell id="SGqqC_UlUSvSamoaFsI_-34" style="edgeStyle=orthogonalEdgeStyle;rounded=0;orthogonalLoop=1;jettySize=auto;html=1;entryX=0;entryY=0.5;entryDx=0;entryDy=0;" parent="1" source="SGqqC_UlUSvSamoaFsI_-2" target="SGqqC_UlUSvSamoaFsI_-27" edge="1">
          <mxGeometry relative="1" as="geometry" />
        </mxCell>
        <mxCell id="SGqqC_UlUSvSamoaFsI_-2" value="Personaggio" style="rounded=0;whiteSpace=wrap;html=1;" parent="1" vertex="1">
          <mxGeometry x="560" y="170" width="120" height="60" as="geometry" />
        </mxCell>
        <mxCell id="SGqqC_UlUSvSamoaFsI_-3" value="Sceglie" style="rhombus;whiteSpace=wrap;html=1;" parent="1" vertex="1">
          <mxGeometry x="360" y="160" width="80" height="80" as="geometry" />
        </mxCell>
        <mxCell id="SGqqC_UlUSvSamoaFsI_-6" value="" style="endArrow=none;html=1;rounded=0;" parent="1" edge="1">
          <mxGeometry width="50" height="50" relative="1" as="geometry">
            <mxPoint x="280" y="214.5" as="sourcePoint" />
            <mxPoint x="280" y="185.5" as="targetPoint" />
          </mxGeometry>
        </mxCell>
        <mxCell id="SGqqC_UlUSvSamoaFsI_-19" value="" style="ellipse;whiteSpace=wrap;html=1;aspect=fixed;fillColor=#000000;" parent="1" vertex="1">
          <mxGeometry x="661" y="259" width="19" height="19" as="geometry" />
        </mxCell>
        <mxCell id="SGqqC_UlUSvSamoaFsI_-20" value="Codice" style="text;html=1;align=center;verticalAlign=middle;whiteSpace=wrap;rounded=0;" parent="1" vertex="1">
          <mxGeometry x="690" y="254" width="40" height="30" as="geometry" />
        </mxCell>
        <mxCell id="SGqqC_UlUSvSamoaFsI_-23" value="" style="ellipse;whiteSpace=wrap;html=1;aspect=fixed;" parent="1" vertex="1">
          <mxGeometry x="661" y="289" width="19" height="19" as="geometry" />
        </mxCell>
        <mxCell id="SGqqC_UlUSvSamoaFsI_-24" value="Nome" style="text;html=1;align=center;verticalAlign=middle;whiteSpace=wrap;rounded=0;" parent="1" vertex="1">
          <mxGeometry x="690" y="283.5" width="40" height="30" as="geometry" />
        </mxCell>
        <mxCell id="SGqqC_UlUSvSamoaFsI_-25" value="" style="ellipse;whiteSpace=wrap;html=1;aspect=fixed;" parent="1" vertex="1">
          <mxGeometry x="661" y="319" width="19" height="19" as="geometry" />
        </mxCell>
        <mxCell id="SGqqC_UlUSvSamoaFsI_-26" value="Categoria" style="text;html=1;align=center;verticalAlign=middle;whiteSpace=wrap;rounded=0;" parent="1" vertex="1">
          <mxGeometry x="690" y="313.5" width="50" height="30" as="geometry" />
        </mxCell>
        <mxCell id="SGqqC_UlUSvSamoaFsI_-27" value="" style="ellipse;whiteSpace=wrap;html=1;aspect=fixed;" parent="1" vertex="1">
          <mxGeometry x="661" y="349" width="19" height="19" as="geometry" />
        </mxCell>
        <mxCell id="SGqqC_UlUSvSamoaFsI_-28" value="Crediti" style="text;html=1;align=center;verticalAlign=middle;whiteSpace=wrap;rounded=0;" parent="1" vertex="1">
          <mxGeometry x="690" y="343.5" width="40" height="30" as="geometry" />
        </mxCell>
        <mxCell id="SGqqC_UlUSvSamoaFsI_-44" value="" style="ellipse;whiteSpace=wrap;html=1;aspect=fixed;fillColor=#000000;" parent="1" vertex="1">
          <mxGeometry x="221" y="259" width="20" height="20" as="geometry" />
        </mxCell>
        <mxCell id="SGqqC_UlUSvSamoaFsI_-45" value="Codice" style="text;html=1;align=center;verticalAlign=middle;whiteSpace=wrap;rounded=0;" parent="1" vertex="1">
          <mxGeometry x="251" y="254" width="40" height="30" as="geometry" />
        </mxCell>
        <mxCell id="SGqqC_UlUSvSamoaFsI_-46" value="" style="ellipse;whiteSpace=wrap;html=1;aspect=fixed;fillColor=#000000;" parent="1" vertex="1">
          <mxGeometry x="221" y="299" width="20" height="20" as="geometry" />
        </mxCell>
        <mxCell id="SGqqC_UlUSvSamoaFsI_-47" value="Nome" style="text;html=1;align=center;verticalAlign=middle;whiteSpace=wrap;rounded=0;" parent="1" vertex="1">
          <mxGeometry x="251" y="294" width="40" height="30" as="geometry" />
        </mxCell>
        <mxCell id="x1iZMGZRo4edDlryZQ7p-5" value="" style="endArrow=none;html=1;rounded=0;" edge="1" parent="1">
          <mxGeometry width="50" height="50" relative="1" as="geometry">
            <mxPoint x="520" y="214.5" as="sourcePoint" />
            <mxPoint x="520" y="185.5" as="targetPoint" />
          </mxGeometry>
        </mxCell>
      </root>
    </mxGraphModel>
  </diagram>
</mxfile>
